<svg width="274" height="54" viewBox="0 0 274 54" fill="none" xmlns="http://www.w3.org/2000/svg">
<g clip-path="url(#clip0_378_176)">
<path d="M78.8012 29.7564C77.8145 30.1638 76.4886 30.3834 75.0704 30.3834C71.8327 30.3834 69.8902 28.5023 69.8902 25.3047C69.8902 22.4832 70.9694 20.3514 72.6035 19.0661C73.7445 18.1883 75.2245 17.7494 76.8587 17.7494C78.6163 17.7494 79.9422 18.1256 80.497 18.3451L81.8536 13.9874C81.237 13.6739 79.5105 13.1723 77.2904 13.1723C74.3919 13.1723 71.9254 13.768 69.7669 15.1474C66.4677 17.1851 64.155 20.7903 64.155 25.9003C64.155 31.5434 68.0401 34.9604 73.6827 34.9604C76.2421 34.9604 78.1228 34.5843 79.1711 34.0825L78.8012 29.7564ZM86.5601 34.6156L87.5158 29.3488C88.0401 26.5587 89.0885 24.0507 92.2027 24.0507C92.4492 24.0507 92.696 24.0821 92.8809 24.0821L93.9292 18.878C93.6209 18.8466 93.3434 18.8466 93.0351 18.8466C90.9384 18.8466 89.2426 20.2574 88.1325 22.2951H88.0402C88.1325 21.2606 88.1943 20.226 88.2559 19.1915H83.7234C83.5693 20.4768 83.3841 23.2983 82.9524 25.775L81.2874 34.6156H86.5601ZM95.1339 19.1915L98.0937 32.9854C98.1863 33.3301 98.1555 33.5184 98.0322 33.7378C97.5697 34.5843 96.7989 35.368 95.7813 36.0263C94.9487 36.5593 94.0238 36.9354 93.2837 37.1237L94.4247 41.732C95.473 41.5752 97.6931 40.7915 99.4814 39.0987C101.485 37.2489 103.397 34.4276 105.587 30.0071L110.859 19.1915H105.34L103.058 25.2107C102.441 26.8722 102.164 27.844 101.856 28.7531H101.794C101.701 27.844 101.547 26.7782 101.362 25.242L100.684 19.1915H95.1339ZM114.265 40.8228L115.498 34.3334H115.56C116.084 34.6782 117.133 34.9604 118.181 34.9604C123.577 34.9604 126.938 30.1325 126.938 24.8031C126.938 21.5114 125.242 18.8466 121.973 18.8466C120.247 18.8466 118.52 19.6304 117.348 21.1665H117.287L117.503 19.0347H112.816C112.631 20.6336 112.261 23.5491 111.922 25.3674L109.023 40.8228H114.265ZM116.762 27.3424C117.225 24.8658 118.335 23.1729 119.846 23.1729C120.987 23.1729 121.419 24.1761 121.419 25.242C121.419 27.844 119.939 30.9478 117.965 30.9478C117.256 30.9478 116.732 30.6969 116.3 30.2579L116.762 27.3424ZM131.937 16.3073L131.412 19.1915H129.563L128.792 23.2356H130.642L129.593 28.6593C129.377 29.8503 129.285 30.6656 129.285 31.5119C129.285 33.581 130.703 34.9604 133.571 34.9604C134.589 34.9604 135.822 34.8349 136.469 34.5843L137.148 30.4147C136.716 30.446 136.284 30.446 135.914 30.446C134.958 30.446 134.681 29.9132 134.681 29.2547C134.681 28.7844 134.804 28.0007 134.897 27.4992L135.76 23.2356H138.843L139.614 19.1915H136.531L137.333 14.8025L131.937 16.3073ZM149.031 18.8466C143.45 18.8466 139.688 23.1416 139.688 28.5651C139.688 32.5777 142.463 34.9604 146.348 34.9604C151.683 34.9604 155.691 31.1671 155.691 25.1793C155.691 21.5427 153.101 18.8466 149.031 18.8466ZM148.353 22.8908C149.709 22.8908 150.234 23.9567 150.234 25.242C150.234 27.4365 149.247 30.9162 147.089 30.9162C145.824 30.9162 145.146 29.9758 145.146 28.471C145.146 26.59 146.071 22.8908 148.353 22.8908ZM157.023 34.6156H162.141L163.529 27.3738C163.899 27.4051 164.485 27.4992 165.194 27.4992C167.815 27.4992 170.251 26.8722 171.978 25.5555C173.735 24.2388 174.938 22.2011 174.938 19.4109C174.938 17.2165 173.951 15.5863 172.378 14.6144C170.713 13.5485 168.493 13.3291 166.674 13.3291C164.516 13.3291 162.265 13.5485 160.877 13.8934L157.023 34.6156ZM165.317 17.6553C165.626 17.5927 166.181 17.5613 166.921 17.5613C168.37 17.5613 169.665 18.0942 169.665 19.9125C169.665 21.6368 168.185 23.2043 165.872 23.2043C165.101 23.2043 164.67 23.1102 164.3 23.0475L165.317 17.6553ZM179.934 34.6156L182.802 19.1915H177.56L174.693 34.6156H179.934ZM180.705 17.624C182.308 17.624 183.727 16.5894 183.727 14.7398C183.727 13.235 182.648 12.2632 181.199 12.2632C179.657 12.2632 178.269 13.4231 178.269 15.1474C178.269 16.6835 179.318 17.624 180.705 17.624ZM196.5 29.8819C195.205 30.5088 193.756 30.8223 192.183 30.8223C191.011 30.8223 190.086 30.5401 189.501 30.0071C189.192 29.7251 189.007 29.3488 188.945 29.004C195.205 29.1921 198.658 27.5933 198.658 23.7372C198.658 20.6022 196.191 18.8466 193.016 18.8466C187.311 18.8466 183.981 23.5805 183.981 28.2829C183.981 32.5777 186.417 34.9291 190.857 34.9291C192.399 34.9291 194.773 34.7098 196.808 33.7065L196.5 29.8819ZM193.756 23.7059C193.756 24.709 192.646 25.1793 189.439 25.148C189.593 24.1448 190.518 22.7027 192.399 22.7027C193.262 22.7027 193.756 23.1729 193.756 23.7059ZM205.411 34.6156H218.516L219.379 29.9445H211.547L214.6 13.4858H209.358L205.411 34.6156ZM235.531 34.6156C235.469 32.6093 235.808 29.443 236.117 27.7814L237.751 19.6931C236.394 19.2542 234.297 18.8466 232.324 18.8466C224.523 18.8466 221.316 24.3328 221.316 29.4743C221.316 32.8286 223.29 34.9604 226.003 34.9604C227.606 34.9604 229.487 34.2395 230.782 31.9508H230.844C230.813 32.8286 230.751 33.7378 230.721 34.6156H235.531ZM231.214 26.0571C230.536 29.6936 229.271 30.6656 228.316 30.6656C227.421 30.6656 226.805 29.9132 226.805 28.471C226.805 26.2138 228.439 22.8594 230.875 22.8594C231.122 22.8594 231.491 22.8908 231.831 22.9535L231.214 26.0571ZM242.541 12.3572L239.519 27.4992C239.304 28.5023 239.15 29.4743 239.15 30.5088C239.118 33.205 240.845 34.9604 244.854 34.9604C251.946 34.9604 255.121 29.2862 255.121 24.1761C255.121 21.4173 253.641 18.8466 250.558 18.8466C248.769 18.8466 247.166 19.599 246.18 20.6336H246.118L247.783 12.3572H242.541ZM244.977 26.7782C245.409 24.4896 246.704 23.1729 247.999 23.1729C249.078 23.1729 249.602 24.0507 249.602 25.3674C249.602 27.7499 247.999 30.9478 245.995 30.9478C245.193 30.9478 244.638 30.446 244.607 29.5055C244.545 28.9099 244.669 28.3771 244.761 27.8753L244.977 26.7782ZM266.284 18.8466C260.703 18.8466 256.942 23.1416 256.942 28.5651C256.942 32.5777 259.717 34.9604 263.602 34.9604C268.936 34.9604 272.943 31.1671 272.943 25.1793C272.943 21.5427 270.354 18.8466 266.284 18.8466ZM265.606 22.8908C266.963 22.8908 267.487 23.9567 267.487 25.242C267.487 27.4365 266.5 30.9162 264.342 30.9162C263.077 30.9162 262.399 29.9758 262.399 28.471C262.399 26.59 263.324 22.8908 265.606 22.8908Z" fill="white"/>
<path d="M38.8776 10.6079C39.3678 11.0584 39.8526 11.5199 40.332 11.9925C44.1568 15.7552 47.307 20.1671 49.6415 25.0301C46.0135 24.1134 37.4122 21.8039 36.1648 21.4744" fill="#D0297C"/>
<path fill-rule="evenodd" clip-rule="evenodd" d="M25.7985 7.71394C23.0204 7.43702 20.5637 7.93548 18.7443 9.22871L10.0776 0.826874C14.0323 -0.444203 18.7933 -0.230971 23.734 1.33641L25.7985 7.71394ZM34.2338 10.3888L34.7621 7.00483C32.2308 5.16814 29.5047 3.62618 26.6348 2.40791L28.5032 8.18175C28.6666 8.22052 28.8327 8.26206 28.9989 8.30914C30.8115 8.81184 32.5663 9.50899 34.2338 10.3888ZM19.8065 27.0734L4.91899 31.7811C2.1327 26.91 0.523024 21.906 0.217974 17.3285L16.6879 21.2303C17.4743 23.3071 18.5226 25.2712 19.8065 27.0734ZM15.2525 44.2454L24.6682 32.598C23.498 31.5274 22.4014 30.3765 21.3862 29.1531L6.23449 33.9466C8.10137 36.8097 10.2625 39.4629 12.6814 41.8611C13.5239 42.6974 14.381 43.4922 15.2525 44.2454ZM52.9317 41.241L48.9633 37.641C49.045 37.533 49.1213 37.4223 49.1948 37.306C50.6138 35.2983 50.9488 32.5983 50.3387 29.6241H51.7496C53.0542 33.7198 53.4737 37.7075 52.9317 41.241ZM52.2943 43.9688C51.6619 45.972 50.5961 47.8058 49.1757 49.3355C47.8528 50.7429 46.2516 51.8489 44.4774 52.5811L40.1686 40.51C42.9059 40.8894 45.3435 40.51 47.1793 39.3248L52.2943 43.9688ZM30.3308 52.7417C34.5688 53.9795 38.6434 54.2038 42.165 53.3398L37.3741 39.9257C35.6751 39.4646 34.0259 38.8299 32.4525 38.0315L30.3308 52.7417ZM30.1809 36.7687L28.002 51.9663C24.1047 50.4709 20.4498 48.3904 17.1591 45.7936L26.5339 34.1906C27.6936 35.1291 28.9117 35.9903 30.1809 36.7687ZM0.187988 14.7339L15.9008 18.4586C15.3261 15.5176 15.6774 12.8564 17.0964 10.8764L7.73523 1.80162C6.40001 2.49776 5.18929 3.41701 4.15362 4.52102C1.65876 7.18502 0.370473 10.7324 0.187988 14.7339Z" fill="url(#paint0_linear_378_176)"/>
</g>
<defs>
<linearGradient id="paint0_linear_378_176" x1="26.6753" y1="0" x2="26.6753" y2="53.1563" gradientUnits="userSpaceOnUse">
<stop stop-color="#AA1F83"/>
<stop offset="1" stop-color="#6D00D6"/>
</linearGradient>
<clipPath id="clip0_378_176">
<rect width="274" height="54" fill="white"/>
</clipPath>
</defs>
</svg>
