<svg width="223" height="137" viewBox="0 0 223 137" fill="none" xmlns="http://www.w3.org/2000/svg">
<path d="M95.139 12.7928L15.4581 58.7926C10.9184 61.4133 8.53515 64.9182 8.53516 68.5258C8.53516 72.1335 10.9184 75.6383 15.4581 78.2591L95.139 124.259C99.6815 126.881 105.604 128.178 111.499 128.178C117.394 128.178 123.316 126.881 127.859 124.259L207.54 78.2591C212.079 75.6383 214.463 72.1335 214.463 68.5258C214.463 64.9182 212.079 61.4133 207.54 58.7926L127.859 12.7928C123.316 10.1704 117.394 8.87353 111.499 8.87354C105.604 8.87354 99.6815 10.1704 95.139 12.7928Z" stroke="#FF61C9"/>
<g filter="url(#filter0_f_629_4394)">
<path d="M94.889 12.3598L15.2081 58.3596C10.5773 61.0329 8.03515 64.6766 8.03516 68.5258C8.03516 72.3751 10.5773 76.0188 15.2081 78.6921L94.889 124.692C99.5254 127.368 105.539 128.678 111.499 128.678C117.458 128.678 123.472 127.368 128.109 124.692L207.79 78.6921C212.42 76.0188 214.963 72.3751 214.963 68.5258C214.963 64.6766 212.42 61.0329 207.79 58.3596L128.109 12.3598C123.472 9.68317 117.458 8.37353 111.499 8.37354C105.539 8.37354 99.5254 9.68318 94.889 12.3598Z" stroke="#FF61C9" stroke-width="2"/>
</g>
<defs>
<filter id="filter0_f_629_4394" x="0.0351562" y="0.373535" width="222.927" height="136.305" filterUnits="userSpaceOnUse" color-interpolation-filters="sRGB">
<feFlood flood-opacity="0" result="BackgroundImageFix"/>
<feBlend mode="normal" in="SourceGraphic" in2="BackgroundImageFix" result="shape"/>
<feGaussianBlur stdDeviation="3.5" result="effect1_foregroundBlur_629_4394"/>
</filter>
</defs>
</svg>
