<svg width="16" height="16" viewBox="0 0 16 16" fill="none" xmlns="http://www.w3.org/2000/svg">
<path d="M13.7429 2.25714C13.4 1.91429 12.8857 1.91429 12.5429 2.25714L8 6.8L3.45714 2.25714C3.11429 1.91429 2.6 1.91429 2.25714 2.25714C1.91429 2.6 1.91429 3.11429 2.25714 3.45714L6.8 8L2.25714 12.5429C1.91429 12.8857 1.91429 13.4 2.25714 13.7429C2.42857 13.9143 2.6 14 2.85714 14C3.11429 14 3.28571 13.9143 3.45714 13.7429L8 9.2L12.5429 13.7429C12.7143 13.9143 12.9714 14 13.1429 14C13.3143 14 13.5714 13.9143 13.7429 13.7429C14.0857 13.4 14.0857 12.8857 13.7429 12.5429L9.2 8L13.7429 3.45714C14.0857 3.11429 14.0857 2.6 13.7429 2.25714Z" fill="white"/>
</svg>
